<svg width="100" height="41" viewBox="0 0 100 41" fill="none" xmlns="http://www.w3.org/2000/svg">
<g clip-path="url(#clip0_319_118)">
<path d="M80.0001 40.0722H73.3334C68.7334 40.0722 65.0001 36.3389 65.0001 31.7389V8.33333C65.0001 3.73333 68.7334 0 73.3334 0H80.0001V40.0722Z" fill="#02E3A7"/>
<path d="M100 8.33333C100 3.73333 96.2667 0 91.6667 0H85V15.0722H100V8.33333Z" fill="#02E3A7"/>
<path d="M84.9999 25.0722V40.0722H91.6666C96.2666 40.0722 99.9999 36.3389 99.9999 31.7389V25.0722H84.9999Z" fill="#02E3A7"/>
<path d="M25 20.0722H17.5L24.7722 0.0722351H0V10.0722H7.5V30.0722H0V40.0722H18.3333L25 20.0722Z" fill="#02E3A7"/>
<path d="M50 20.0722C55.5222 20.0722 60 15.5945 60 10.0722C60 4.55001 55.5222 0.0722351 50 0.0722351H35L30 15.0722H40L19.5444 40.0722H32.5H50C55.5222 40.0722 60 35.5945 60 30.0722C60 24.55 55.5222 20.0722 50 20.0722Z" fill="#02E3A7"/>
</g>
<defs>
<clipPath id="clip0_319_118">
<rect width="100" height="40.0722" fill="white"/>
</clipPath>
</defs>
</svg>
