<svg width="47" height="22" viewBox="0 0 47 22" fill="none" xmlns="http://www.w3.org/2000/svg">
<path d="M0.632 21V0.391998H5.784V21H0.632ZM9.03825 21V0.391998H19.9183C21.9876 0.391998 23.5449 0.882665 24.5903 1.864C25.6569 2.84533 26.1903 4.232 26.1903 6.024C26.1903 7.112 25.9769 8.02933 25.5503 8.776C25.1449 9.50133 24.6009 10.0667 23.9183 10.472C24.8569 10.8133 25.5929 11.3147 26.1263 11.976C26.6596 12.6373 26.9263 13.6293 26.9263 14.952C26.9263 16.9147 26.3503 18.4187 25.1983 19.464C24.0463 20.488 22.3929 21 20.2383 21H9.03825ZM14.1903 8.776H18.3823C19.2783 8.776 19.9289 8.57333 20.3343 8.168C20.7396 7.76267 20.9423 7.19733 20.9423 6.472C20.9423 5.68267 20.7396 5.096 20.3343 4.712C19.9289 4.30667 19.1929 4.104 18.1263 4.104H14.1903V8.776ZM14.1903 17.32H18.8943C19.8329 17.32 20.5263 17.128 20.9743 16.744C21.4436 16.36 21.6783 15.6773 21.6783 14.696C21.6783 13.9067 21.4543 13.32 21.0063 12.936C20.5583 12.5307 19.7903 12.328 18.7023 12.328H14.1903V17.32ZM39.9703 21.32C36.3649 21.32 33.6129 20.4027 31.7143 18.568C29.8369 16.712 28.8983 14.1413 28.8983 10.856C28.8983 7.42133 29.8156 4.76533 31.6503 2.888C33.5063 1.01067 36.2689 0.0719986 39.9383 0.0719986C41.1969 0.0719986 42.3169 0.167999 43.2983 0.359999C44.3009 0.551999 45.2609 0.807999 46.1783 1.128V5.64C44.3223 4.872 42.3703 4.488 40.3223 4.488C38.1889 4.488 36.6209 5 35.6183 6.024C34.6369 7.048 34.1463 8.65867 34.1463 10.856C34.1463 12.9467 34.6689 14.4827 35.7143 15.464C36.7596 16.4453 38.3169 16.936 40.3863 16.936C41.3889 16.936 42.3809 16.8507 43.3623 16.68C44.3436 16.488 45.2929 16.2 46.2103 15.816V20.36C45.3143 20.6587 44.3649 20.8933 43.3623 21.064C42.3596 21.2347 41.2289 21.32 39.9703 21.32Z" fill="white"/>
</svg>
